<svg width="284" height="69" viewBox="0 0 284 69" fill="none" xmlns="http://www.w3.org/2000/svg">
<path d="M21.3995 56.4C9.58083 56.3998 6.18728e-05 46.8183 6.2906e-05 34.9996C6.43035e-05 34.9331 0.00238617 34.8668 0.00299261 34.8004L8.40143 34.8004C8.40043 34.8667 8.39948 34.9331 8.39948 34.9996C8.39948 42.1792 14.22 47.9994 21.3995 47.9996C28.5792 47.9996 34.3995 42.1793 34.3995 34.9996C34.3995 34.9331 34.3985 34.8667 34.3975 34.8004L42.7969 34.8004C42.7975 34.8668 42.7999 34.9332 42.7999 34.9996C42.7999 46.8185 33.2183 56.4 21.3995 56.4Z" fill="#D9D9D9"/>
<path d="M21.3995 56.4C9.58083 56.3998 6.18728e-05 46.8183 6.2906e-05 34.9996C6.43035e-05 34.9331 0.00238617 34.8668 0.00299261 34.8004L8.40143 34.8004C8.40043 34.8667 8.39948 34.9331 8.39948 34.9996C8.39948 42.1792 14.22 47.9994 21.3995 47.9996C28.5792 47.9996 34.3995 42.1793 34.3995 34.9996C34.3995 34.9331 34.3985 34.8667 34.3975 34.8004L42.7969 34.8004C42.7975 34.8668 42.7999 34.9332 42.7999 34.9996C42.7999 46.8185 33.2183 56.4 21.3995 56.4Z" fill="url(#paint0_linear_5_47)"/>
<path d="M21.4004 13.2C33.219 13.2003 42.7997 22.7818 42.7998 34.6004C42.7998 34.6668 42.7975 34.7334 42.7969 34.7996L34.3984 34.7996C34.3994 34.7331 34.4004 34.6662 34.4004 34.5994C34.4 27.4202 28.5797 21.5997 21.4004 21.5994C14.2209 21.5994 8.40073 27.42 8.40039 34.5994C8.40039 34.6662 8.40134 34.7331 8.40234 34.7996L0.00292591 34.7996C0.0023209 34.7334 -2.3633e-06 34.6668 -3.74176e-06 34.6004C0.000126843 22.7817 9.58161 13.2 21.4004 13.2Z" fill="#D9D9D9"/>
<path d="M21.4004 13.2C33.219 13.2003 42.7997 22.7818 42.7998 34.6004C42.7998 34.6668 42.7975 34.7334 42.7969 34.7996L34.3984 34.7996C34.3994 34.7331 34.4004 34.6662 34.4004 34.5994C34.4 27.4202 28.5797 21.5997 21.4004 21.5994C14.2209 21.5994 8.40073 27.42 8.40039 34.5994C8.40039 34.6662 8.40134 34.7331 8.40234 34.7996L0.00292591 34.7996C0.0023209 34.7334 -2.3633e-06 34.6668 -3.74176e-06 34.6004C0.000126843 22.7817 9.58161 13.2 21.4004 13.2Z" fill="url(#paint1_linear_5_47)"/>
<path d="M83.3408 46.8224C84.256 46.8224 85.0128 47.1216 85.6112 47.72C86.2448 48.2832 86.5616 49.0224 86.5616 49.9376C86.5616 50.8176 86.2448 51.5568 85.6112 52.1552C85.0128 52.7184 84.256 53 83.3408 53H66.1808C65.2656 53 64.4912 52.7008 63.8576 52.1024C63.2592 51.4688 62.96 50.6944 62.96 49.7792V19.2608C62.96 18.3456 63.2768 17.5888 63.9104 16.9904C64.544 16.3568 65.3536 16.04 66.3392 16.04C67.184 16.04 67.9232 16.3568 68.5568 16.9904C69.2256 17.5888 69.56 18.3456 69.56 19.2608V47.72L68.3984 46.8224H83.3408ZM126.096 34.52C126.096 37.16 125.656 39.624 124.776 41.912C123.896 44.2 122.646 46.224 121.027 47.984C119.443 49.7088 117.542 51.064 115.325 52.0496C113.142 53.0352 110.749 53.528 108.144 53.528C105.539 53.528 103.146 53.0352 100.963 52.0496C98.7808 51.064 96.88 49.7088 95.2608 47.984C93.6768 46.224 92.4448 44.2 91.5648 41.912C90.6848 39.624 90.2448 37.16 90.2448 34.52C90.2448 31.88 90.6848 29.416 91.5648 27.128C92.4448 24.84 93.6768 22.8336 95.2608 21.1088C96.88 19.3488 98.7808 17.976 100.963 16.9904C103.146 16.0048 105.539 15.512 108.144 15.512C110.749 15.512 113.142 16.0048 115.325 16.9904C117.542 17.976 119.443 19.3488 121.027 21.1088C122.646 22.8336 123.896 24.84 124.776 27.128C125.656 29.416 126.096 31.88 126.096 34.52ZM119.232 34.52C119.232 32.1616 118.757 30.032 117.806 28.1312C116.856 26.1952 115.554 24.664 113.899 23.5376C112.245 22.4112 110.326 21.848 108.144 21.848C105.962 21.848 104.043 22.4112 102.389 23.5376C100.734 24.664 99.432 26.1776 98.4816 28.0784C97.5664 29.9792 97.1088 32.1264 97.1088 34.52C97.1088 36.8784 97.5664 39.0256 98.4816 40.9616C99.432 42.8624 100.734 44.376 102.389 45.5024C104.043 46.6288 105.962 47.192 108.144 47.192C110.326 47.192 112.245 46.6288 113.899 45.5024C115.554 44.376 116.856 42.8624 117.806 40.9616C118.757 39.0256 119.232 36.8784 119.232 34.52ZM166.16 34.52C166.16 37.16 165.72 39.624 164.84 41.912C163.96 44.2 162.71 46.224 161.091 47.984C159.507 49.7088 157.606 51.064 155.389 52.0496C153.206 53.0352 150.813 53.528 148.208 53.528C145.603 53.528 143.21 53.0352 141.027 52.0496C138.845 51.064 136.944 49.7088 135.325 47.984C133.741 46.224 132.509 44.2 131.629 41.912C130.749 39.624 130.309 37.16 130.309 34.52C130.309 31.88 130.749 29.416 131.629 27.128C132.509 24.84 133.741 22.8336 135.325 21.1088C136.944 19.3488 138.845 17.976 141.027 16.9904C143.21 16.0048 145.603 15.512 148.208 15.512C150.813 15.512 153.206 16.0048 155.389 16.9904C157.606 17.976 159.507 19.3488 161.091 21.1088C162.71 22.8336 163.96 24.84 164.84 27.128C165.72 29.416 166.16 31.88 166.16 34.52ZM159.296 34.52C159.296 32.1616 158.821 30.032 157.87 28.1312C156.92 26.1952 155.618 24.664 153.963 23.5376C152.309 22.4112 150.39 21.848 148.208 21.848C146.026 21.848 144.107 22.4112 142.453 23.5376C140.798 24.664 139.496 26.1776 138.546 28.0784C137.63 29.9792 137.173 32.1264 137.173 34.52C137.173 36.8784 137.63 39.0256 138.546 40.9616C139.496 42.8624 140.798 44.376 142.453 45.5024C144.107 46.6288 146.026 47.192 148.208 47.192C150.39 47.192 152.309 46.6288 153.963 45.5024C155.618 44.376 156.92 42.8624 157.87 40.9616C158.821 39.0256 159.296 36.8784 159.296 34.52ZM187.48 16.04C189.311 16.04 191.018 16.568 192.602 17.624C194.221 18.68 195.523 20.1056 196.509 21.9008C197.495 23.696 197.987 25.7024 197.987 27.92C197.987 30.1024 197.495 32.0912 196.509 33.8864C195.523 35.6816 194.221 37.1248 192.602 38.216C191.018 39.272 189.311 39.8 187.48 39.8H177.765L178.293 38.8496V49.7792C178.293 50.6944 178.011 51.4688 177.448 52.1024C176.885 52.7008 176.146 53 175.231 53C174.351 53 173.629 52.7008 173.066 52.1024C172.503 51.4688 172.221 50.6944 172.221 49.7792V19.2608C172.221 18.3456 172.52 17.5888 173.119 16.9904C173.752 16.3568 174.527 16.04 175.442 16.04H187.48ZM187.48 33.7808C188.149 33.7808 188.8 33.4992 189.434 32.936C190.067 32.3728 190.595 31.6512 191.018 30.7712C191.44 29.856 191.651 28.9056 191.651 27.92C191.651 26.8992 191.44 25.9488 191.018 25.0688C190.595 24.1888 190.067 23.4848 189.434 22.9568C188.8 22.3936 188.149 22.112 187.48 22.112H177.659L178.293 21.1616V34.6256L177.712 33.7808H187.48ZM224.416 46.8224C225.331 46.8224 226.088 47.1216 226.686 47.72C227.32 48.2832 227.637 49.0224 227.637 49.9376C227.637 50.8176 227.32 51.5568 226.686 52.1552C226.088 52.7184 225.331 53 224.416 53H207.256C206.341 53 205.566 52.7008 204.933 52.1024C204.334 51.4688 204.035 50.6944 204.035 49.7792V19.2608C204.035 18.3456 204.352 17.5888 204.985 16.9904C205.619 16.3568 206.429 16.04 207.414 16.04C208.259 16.04 208.998 16.3568 209.632 16.9904C210.301 17.5888 210.635 18.3456 210.635 19.2608V47.72L209.473 46.8224H224.416ZM236.904 16.04H254.592C255.507 16.04 256.264 16.3392 256.863 16.9376C257.496 17.5008 257.813 18.24 257.813 19.1552C257.813 20.0352 257.496 20.7568 256.863 21.32C256.264 21.848 255.507 22.112 254.592 22.112H239.808L240.283 21.2144V31.5104L239.861 31.088H252.216C253.131 31.088 253.888 31.3872 254.487 31.9856C255.12 32.5488 255.437 33.288 255.437 34.2032C255.437 35.0832 255.12 35.8048 254.487 36.368C253.888 36.896 253.131 37.16 252.216 37.16H240.019L240.283 36.7376V47.4032L239.861 46.928H254.592C255.507 46.928 256.264 47.2448 256.863 47.8784C257.496 48.4768 257.813 49.1808 257.813 49.9904C257.813 50.8704 257.496 51.592 256.863 52.1552C256.264 52.7184 255.507 53 254.592 53H236.904C235.989 53 235.215 52.7008 234.581 52.1024C233.983 51.4688 233.683 50.6944 233.683 49.7792V19.2608C233.683 18.3456 233.983 17.5888 234.581 16.9904C235.215 16.3568 235.989 16.04 236.904 16.04Z" fill="#232D56"/>
<defs>
<linearGradient id="paint0_linear_5_47" x1="6.26518e-05" y1="44.072" x2="44.4281" y2="44.072" gradientUnits="userSpaceOnUse">
<stop stop-color="#2B79F6"/>
<stop offset="1" stop-color="#2641AB"/>
</linearGradient>
<linearGradient id="paint1_linear_5_47" x1="42.7998" y1="25.5281" x2="-1.62826" y2="25.5281" gradientUnits="userSpaceOnUse">
<stop stop-color="#2B79F6"/>
<stop offset="1" stop-color="#2641AB"/>
</linearGradient>
</defs>
</svg>
